<?xml version="1.0" encoding="utf-8"?>
<!-- Uploaded to: SVG Repo, www.svgrepo.com, Generator: SVG Repo Mixer Tools -->
<svg width="800px" height="800px" viewBox="0 0 1024 1024" class="icon"  version="1.1" xmlns="http://www.w3.org/2000/svg"><path d="M531.456 615.936m-332.352 0a332.352 332.352 0 1 0 664.704 0 332.352 332.352 0 1 0-664.704 0Z" fill="#C39124" /><path d="M423.104 466.56m-332.416 0a332.416 332.416 0 1 0 664.832 0 332.416 332.416 0 1 0-664.832 0Z" fill="#F5BB1B" /><path d="M423.104 466.56m-119.104 0a119.104 119.104 0 1 0 238.208 0 119.104 119.104 0 1 0-238.208 0Z" fill="#CC9C26" /><path d="M455.104 695.872H376.896l21.312-229.312h42.688z" fill="#35464E" /></svg>