<svg width="54" height="54" fill="none" xmlns="http://www.w3.org/2000/svg">
    <g clip-path="url(#a)">
        <path fill="#6a6d6d" fill-rule="evenodd" clip-rule="evenodd" d="M3 26.94C3 13.72 13.72 3 26.94 3c13.223 0 23.942 10.72 23.942 23.94 0 13.223-10.72 23.942-23.941 23.942C13.719 50.882 3 40.162 3 26.94Zm23.94 22.385c12.364 0 22.385-10.022 22.385-22.384S39.303 4.557 26.94 4.557 4.557 14.579 4.557 26.941s10.02 22.384 22.384 22.384Z" />
        <path fill="#6a6d6d" fill-rule="evenodd" clip-rule="evenodd" d="M26.941 13.522v-.779c7.84 0 14.198 6.357 14.198 14.198h-.779c0-7.4-6.02-13.42-13.419-13.42ZM13.523 26.94c0 7.4 6.02 13.419 13.418 13.419v.778c-7.84 0-14.197-6.357-14.197-14.197h.779Z" />
        <path fill="#6a6d6d" d="M38.543 16.783c.325.35.794.912 1.057 1.254l4.848-3.077a32.175 32.175 0 0 0-.916-1.137l-3.07 2.03-.21.18.156-.228 1.356-2.706-.959-.958-2.707 1.355-.228.157.182-.21 2.031-3.069a29.59 29.59 0 0 0-1.139-.92l-3.077 4.843c.39.3.904.74 1.232 1.04l2.897-1.503.186-.136-.137.185-1.502 2.9ZM27.543 10.645l1.324-2.968.085-.263-.024.275.14 3.965c.464.043.944.108 1.417.187l-.216-5.873a29.402 29.402 0 0 0-1.979-.153l-1.305 3.239-.046.24-.047-.24-1.303-3.239a29.4 29.4 0 0 0-1.98.153l-.215 5.873a21.04 21.04 0 0 1 1.418-.187l.14-3.965-.025-.275.085.263 1.325 2.968h1.206Z" />
        <path fill="#6a6d6d" fill-rule="evenodd" clip-rule="evenodd" d="M16.83 15.325c.765-.807 1.199-1.739.433-2.628-.417-.483-1.116-.589-1.696-.35l-.058.022.018-.05c.086-.23.141-.962-.482-1.468a1.442 1.442 0 0 0-1.072-.298c-.719.073-1.272.564-2.778 2.244a36.357 36.357 0 0 0-1.513 1.824l4.137 3.924c1.083-1.2 1.66-1.803 2.388-2.566l.623-.654Zm-5.399-.96c.834-1.02 1.719-1.944 2.12-2.31.127-.115.265-.23.432-.276.272-.074.552.118.615.397.064.28-.112.546-.308.766-.44.497-2.056 2.187-2.056 2.187l-.803-.764Zm3.708-.659c-.514.532-2.088 2.196-2.088 2.196l.84.795 2.085-2.232c.16-.173.355-.4.407-.638a.49.49 0 0 0-.21-.518c-.178-.118-.377-.1-.558-.011-.141.069-.272.197-.476.408Z" />
        <path fill="#0066B1" d="M26.941 12.743v14.198H12.744c0-7.846 6.351-14.197 14.197-14.197ZM41.139 26.94c0 7.847-6.352 14.198-14.198 14.198V26.941H41.14Z" />
    </g>
    <defs><clipPath id="a"><path fill="#fff" transform="translate(3 3)" d="M0 0h48v48H0z"/></clipPath></defs>
</svg>
