<?xml version="1.0" encoding="utf-8"?>
<!-- Uploaded to: SVG Repo, www.svgrepo.com, Generator: SVG Repo Mixer Tools -->
<svg width="800px" height="800px" viewBox="0 0 1024 1024" class="icon"  version="1.1" xmlns="http://www.w3.org/2000/svg"><path d="M833.28 154.048l75.136 75.968L136.64 992.64 61.568 916.672z" fill="#EAB528" /><path d="M876.16 112l75.008 75.968-578.112 570.944-75.008-75.968zM158.848 851.456l43.968 44.48-40.832 40.384-43.968-44.416z" fill="#435861" /><path d="M859.584 276.8l19.072 19.328-432.64 426.368-19.072-19.328z" fill="#EDC14A" /><path d="M755.328 267.2l57.152 57.728-37.376 36.992-57.152-57.728zM686.336 335.424l57.024 57.792-37.312 36.8-57.024-57.792zM617.408 403.584l57.024 57.856-37.376 36.864-56.96-57.856zM548.352 471.808l57.024 57.792-37.376 36.864-57.024-57.792zM479.296 539.968l57.024 57.792-37.312 36.864-57.088-57.792z" fill="#EAB528" /></svg>