<svg version="1.1" id="Layer_1" xmlns="http://www.w3.org/2000/svg" xmlns:xlink="http://www.w3.org/1999/xlink" x="0px" y="0px" viewBox="0 0 48.1 38.7" style="enable-background:new 0 0 48.1 38.7;" xml:space="preserve">
 <style type="text/css">
  .st0{fill:#F99D1C;}
 </style>
 <g>
  <path class="st0" d="M22.9,18.1c-2.2,0.6-4.4,1.1-6.6,1.8C11.8,15.8,6.1,13.3,0,12.6c9-6.4,19.7-9.9,30.8-10L27,6.1
		c0,0,16.1-0.6,20.1-6.1c-0.1,0.6-0.3,1.1-0.5,1.7C45.5,5,43.4,7.8,40.7,10c-2.5,2-5.3,3.6-8.3,4.8c-3,1.3-6,2.4-9.1,3.3
		C23.2,18,23,18.1,22.9,18.1 M48.1,17.6c-10.2-0.5-20.4,0.8-30.2,3.8c2.1,2.2,3.8,4.6,5.1,7.3C31.1,24.2,42.3,18.4,48.1,17.6 M24,31
		c1,2.5,1.6,5.1,1.8,7.7l14.1-14.5L24,31z M31.6,38.6c0.7-0.1,1.2-0.6,1.1-1.3c-0.1-0.7-0.6-1.2-1.3-1.1c-0.6,0.1-1.1,0.6-1.1,1.2
		c0,0.7,0.5,1.2,1.2,1.2C31.5,38.6,31.6,38.6,31.6,38.6 M31.6,36.5c0.5,0,1,0.3,1,0.8c0,0,0,0,0,0.1c0,0.7-0.5,0.9-1,0.9
		c-0.5,0-1-0.3-1-0.8c0,0,0,0,0-0.1C30.6,36.7,31.1,36.5,31.6,36.5 M32.1,38L32,37.7c0-0.1-0.1-0.2-0.2-0.3c0.1-0.1,0.2-0.1,0.2-0.3
		c0-0.3-0.3-0.4-0.5-0.4h-0.4V38h0.3v-0.5h0.2c0.1,0,0.1,0.2,0.1,0.3l0.1,0.2H32.1z M31.6,37c0.2,0,0.2,0,0.2,0.2
		c0,0.1-0.1,0.2-0.4,0.2V37H31.6">
  </path>
 </g>
</svg>